<?xml version="1.0" encoding="UTF-8" standalone="no"?><svg width="498px" height="125px" viewBox="0 0 498 125" version="1.1" xmlns="http://www.w3.org/2000/svg" xmlns:xlink="http://www.w3.org/1999/xlink"><title>E9D1E457-57FD-4C1F-9028-CA3FA69AC1D3</title><desc></desc><defs></defs><g id="Symbols" stroke="none" stroke-width="1" fill="none" fill-rule="evenodd"><g id="Desktop/Home/Header-Gratuit" transform="translate(-471.000000, -24.000000)"><g id="logo-lequipe-copy" transform="translate(470.000000, 24.000000)"><g id="logo" transform="translate(0.464733, 0.118935)"><rect id="Rectangle-37" fill="#FFFFFF" x="0.830603656" y="0.179766674" width="497.409326" height="124.675325"></rect><path d="M56.2886658,84.9729511 L79.1476525,84.948016 L74.4594951,96.3184056 L28.971859,96.3184056 L52.4027175,39.487403 L43.9467589,39.487403 L48.6239951,28.1439433 L79.7225028,28.1439433 L56.2886658,84.9729511 Z M440.087915,28.2378986 L417.448344,28.2378986 L412.771108,39.5823558 L421.22806,39.5823558 L397.79323,96.4143558 L443.283844,96.4143558 L447.972002,85.0409739 L425.110037,85.0689012 L432.18,67.9215558 L455.031044,67.9215558 L459.667574,56.6788337 L436.81653,56.6788337 L443.86763,39.5823558 L466.71371,39.5823558 L471.392932,28.2378986 L440.087915,28.2378986 Z M316.627544,96.304841 L294.073358,96.304841 L317.517123,39.4469085 L309.091942,39.4469085 L313.695709,28.2859734 L344.692947,28.2380981 L316.627544,96.304841 Z M273.867916,75.9642113 C271.21308,82.6428191 267.927796,84.7642945 263.801582,84.7642945 C256.19251,84.7642945 256.586665,77.1850321 257.996487,73.7300295 L276.628984,28.285375 L245.929595,28.285375 L241.439012,39.4612711 L249.496844,39.4612711 C249.496844,39.4612711 245.596996,49.5380295 238.80304,65.7627776 C229.779181,87.3166477 246.142062,96.9455724 258.048115,96.9455724 C273.835152,96.9455724 281.903906,91.650362 287.767577,77.303723 C294.05221,61.9217802 307.913152,28.2983412 307.913152,28.2983412 L293.693797,28.2374997 C293.693797,28.2374997 278.313822,64.7663724 273.867916,75.9642113 Z M88.120877,28.1434446 L83.4674688,39.5038602 L89.2169646,39.505855 L82.6176037,55.4383641 C82.6176037,55.4383641 101.38314,50.8164004 110.308709,28.1434446 L88.120877,28.1434446 Z M167.962421,39.5657989 L172.646607,28.2502664 L152.742291,28.2502664 L155.090341,22.5022352 L140.915665,22.5022352 L138.566622,28.2512638 L119.120002,28.2532586 L114.428866,39.5927288 L122.840147,39.5887391 L99.4003533,96.2451963 L144.766864,96.2451963 L149.442114,84.9047288 L126.64369,84.9296638 L133.69479,67.8301937 L156.244013,67.9010093 L161.105916,56.6173937 L138.318414,56.6173937 L145.348664,39.5657989 L167.962421,39.5657989 Z M224.462958,34.3165688 C212.213384,22.8514259 191.098805,26.025161 177.302398,41.4071038 C163.503012,56.7880493 162.25105,78.5523713 174.49963,90.0165168 C181.489175,96.5594778 191.363891,98.3288701 201.119468,95.789483 L205.947615,102.755343 L215.232589,96.2562675 L211.748738,91.2303558 C215.289181,89.0610051 218.64992,86.2872285 221.66019,82.9299713 C235.458583,67.5480285 236.712531,45.7837064 224.462958,34.3165688 M386.811206,28.2376991 L350.225311,28.2855745 L345.530203,39.4784264 L353.934535,39.4784264 L330.546368,96.2086913 L353.047935,96.2086913 L361.394682,75.9713926 L378.788123,75.9713926 C389.532561,75.9713926 401.272811,67.7697511 405.668083,56.5699173 C410.168595,45.1057719 407.038193,28.2376991 386.811206,28.2376991 Z M385.988148,50.1047537 C385.294157,51.7434862 382.726691,58.053055 382.726691,58.053055 C380.059942,64.4484004 374.940895,64.8902498 372.965157,64.8902498 C370.182246,64.8902498 365.980577,64.9471017 365.980577,64.9471017 L376.5056,39.5622082 L379.913003,39.5622082 C384.356923,39.5622082 388.895163,43.2117043 385.988148,50.1047537 Z M213.10197,49.9518519 C211.737817,53.0767142 203.797139,72.4283194 201.906785,77.0363194 L198.564909,72.2188649 L189.277949,78.7159454 L193.409127,84.6714363 C192.932568,84.7452441 192.460972,84.7841428 192.00129,84.7841428 C186.136626,84.7841428 183.871974,79.4430519 186.160454,73.9713012 C187.406459,70.9900649 196.087791,49.8830311 197.530377,46.392122 C198.972963,42.9032077 202.328739,39.4781272 207.05661,39.4781272 C213.987577,39.4781272 214.653768,46.402096 213.10197,49.9518519 Z" id="Combined-Shape" fill="#D61E00"></path></g></g></g></g></svg>
